<svg id="Layer_1" data-name="Layer 1" xmlns="http://www.w3.org/2000/svg" viewBox="0 0 288 158.76"><defs><style>.cls-1{fill:#96bb7c;}.cls-2{fill:#184d47;}.cls-3{fill:#e8e8e8;}.cls-4{fill:#d6efc7;}</style></defs><path class="cls-1" d="M26.16,112.18a8.88,8.88,0,0,0,3.94-2.65,7.92,7.92,0,0,0,1.82-5.19,7.39,7.39,0,0,0-3.5-6.79c-2.27-1.37-5.69-2.07-10.17-2.07H4V131h14.3c4.93,0,8.72-.81,11.28-2.41a8.17,8.17,0,0,0,3.93-7.37,8.92,8.92,0,0,0-2.22-6.08A10.24,10.24,0,0,0,26.16,112.18Zm-2.63,7.68a3.54,3.54,0,0,1-1.29,3.08,6.76,6.76,0,0,1-4,1H13.88v-8.11h4.37a6.79,6.79,0,0,1,4,1A3.52,3.52,0,0,1,23.53,119.86ZM13.88,108.7v-6.11h4.37a5.12,5.12,0,0,1,2.87.65,2.61,2.61,0,0,1,.87,2.27c0,2.18-1.19,3.19-3.74,3.19Z"/><path class="cls-1" d="M68.41,106.33c0-3.72-1.2-6.49-3.58-8.25s-6.08-2.6-11.12-2.6H39.42V131h9.92V118.22h4.38L61.81,131H73.32L63.39,116C66.72,114.24,68.41,111,68.41,106.33Zm-19.07-3.74h4.37a5.55,5.55,0,0,1,3.71,1,4.33,4.33,0,0,1,1.06,3.28,4.24,4.24,0,0,1-1.09,3.22,5.32,5.32,0,0,1-3.68,1H49.34Z"/><rect class="cls-1" x="77.44" y="95.48" width="9.93" height="35.55"/><path class="cls-1" d="M120.9,97.77h0a21.24,21.24,0,0,0-10.21-2.29H95.89V131h14.8a21.5,21.5,0,0,0,10.21-2.27,15.36,15.36,0,0,0,6.42-6.35,19.3,19.3,0,0,0,2.17-9.21,18.92,18.92,0,0,0-2.17-9.08A15.53,15.53,0,0,0,120.9,97.77Zm-1.34,15.48a11.88,11.88,0,0,1-2.35,7.72,8,8,0,0,1-6.52,2.85h-4.88V102.69h4.88a8,8,0,0,1,6.52,2.87A11.88,11.88,0,0,1,119.56,113.25Z"/><path class="cls-1" d="M156.31,124.12a23.53,23.53,0,0,1-3,.21,9.09,9.09,0,0,1-7.37-3.08,12.16,12.16,0,0,1-2.58-8,12.72,12.72,0,0,1,1.22-5.61,9.32,9.32,0,0,1,3.56-4,10.37,10.37,0,0,1,5.57-1.46,16.75,16.75,0,0,1,4.57.57,22.08,22.08,0,0,1,3.88,1.54l.38.2,2.05-7.15-.26-.13a23,23,0,0,0-10.62-2.35,22.72,22.72,0,0,0-11,2.51,17.08,17.08,0,0,0-6.93,6.69,18.54,18.54,0,0,0-2.32,9.09,19.32,19.32,0,0,0,2.22,9.16,16.66,16.66,0,0,0,6.72,6.75,22.07,22.07,0,0,0,10.94,2.53,33.12,33.12,0,0,0,6.65-.67,28.8,28.8,0,0,0,5.78-1.77l.22-.09v-16h-9.62Z"/><polygon class="cls-1" points="182.07 115.81 193.39 115.81 193.39 108.7 182.07 108.7 182.07 102.59 195.44 102.59 195.44 95.48 172.14 95.48 172.14 131.03 196.47 131.03 196.47 123.92 182.07 123.92 182.07 115.81"/><path class="cls-2" d="M221.47,95h-9.4L198.6,130.55l-.18.48h10l2.62-8h11.27l2.67,8h10.14L221.55,95.24Zm-1.4,21h-6.66l3.31-10.1Z"/><path class="cls-2" d="M265.11,98.32c-2.34-1.89-6.09-2.84-11.14-2.84h-14.8V131h9.93V119.24H254c5,0,8.79-1,11.14-2.84s3.56-5,3.56-9S267.47,100.23,265.11,98.32Zm-6.37,9a5.1,5.1,0,0,1-1.07,3.62,5.23,5.23,0,0,1-3.7,1.15H249.1v-9.54H254a5.1,5.1,0,0,1,3.7,1.1A5.17,5.17,0,0,1,258.74,107.36Z"/><rect class="cls-2" x="274.12" y="95.48" width="9.93" height="35.55"/><path class="cls-1" d="M211.81,82.34c-16-17.57-40.44-27.69-67.81-27.69S92.2,64.77,76.19,82.34l-22,.26v-26L77.23,34.56H210.77l23.08,22.07v26Z"/><path class="cls-2" d="M235.13,83.9l-23.9-.29-.37-.41C195.07,65.87,170.7,55.93,144,55.93S92.93,65.87,77.14,83.2l-.37.41-23.9.29V56.08l23.84-22.8H211.29l23.84,22.8ZM55.43,57.18V81.3l20.19-.24C91.91,63.45,116.79,53.37,144,53.37s52.1,10.08,68.38,27.69l20.19.24V57.18L210.26,35.85H77.74Z"/><path class="cls-3" d="M107.09,61.14V50.93a8.09,8.09,0,0,0-16.18,0V69.14S101.48,63.09,107.09,61.14Z"/><path class="cls-2" d="M89.88,70.91v-20a9.12,9.12,0,1,1,18.23,0V61.87l-.69.24C102,64,91.52,70,91.42,70Zm9.12-27a7.07,7.07,0,0,0-7.06,7.07V67.38a130.3,130.3,0,0,1,14.12-7V50.93A7.07,7.07,0,0,0,99,43.86Z"/><path class="cls-3" d="M129.55,48.87a8.09,8.09,0,0,0-8-6,8.3,8.3,0,0,0-7.93,8.4V59s12.63-3.5,16.13-3.5V50.87A7.87,7.87,0,0,0,129.55,48.87Z"/><path class="cls-2" d="M112.61,60.31V51.24a9.33,9.33,0,0,1,8.94-9.43,9.09,9.09,0,0,1,9,6.79h0a8.41,8.41,0,0,1,.26,2.26v5.61h-1c-2.66,0-11.53,2.27-15.86,3.47Zm9.12-16.45h-.14a7.25,7.25,0,0,0-6.92,7.37v6.38c3-.81,10.48-2.75,14.08-3.13V50.87a6.6,6.6,0,0,0-.19-1.74A7,7,0,0,0,121.73,43.86Z"/><path class="cls-3" d="M136.32,54.92V51a8,8,0,0,1,14.5-4.8,8,8,0,0,1,1.45,4.73v4a149.3,149.3,0,0,0-16,0"/><path class="cls-2" d="M135.3,56.05V51a9,9,0,0,1,16.35-5.41,8.94,8.94,0,0,1,1.65,5.34V56l-1.08,0a146.3,146.3,0,0,0-15.8,0Zm7.64-2.39c3.36,0,6.66.12,8.31.19v-3A6.93,6.93,0,0,0,150,46.75a7.09,7.09,0,0,0-5.7-2.89,7,7,0,0,0-5,2,7.07,7.07,0,0,0-2,5v2.86C139,53.7,141,53.66,142.94,53.66Z"/><path class="cls-3" d="M158.83,55.46V50.1a8.09,8.09,0,0,1,16.13.83V58.8S163.75,56,158.83,55.46"/><path class="cls-2" d="M176,60.12l-1.28-.32c-.11,0-11.2-2.8-16-3.32l-.92-.1V50a9.11,9.11,0,0,1,18.18.93Zm-16.14-5.57c4.19.58,11.21,2.24,14.09,2.94V50.93a7.07,7.07,0,0,0-14.09-.78Z"/><path class="cls-3" d="M197.78,69.34V50.93a8.09,8.09,0,1,0-16.17,0V61.14S191.92,64.67,197.78,69.34Z"/><path class="cls-2" d="M198.81,71.46l-1.67-1.32c-5.65-4.5-15.77-8-15.87-8l-.69-.23v-11a9.12,9.12,0,1,1,18.23,0Zm-16.18-11a69.76,69.76,0,0,1,14.13,6.89V50.93a7.07,7.07,0,1,0-14.13,0Z"/><polygon class="cls-4" points="210.14 35.08 233.85 57.35 233.77 49.1 212.27 28.4 210.72 28.4 204.82 28.4 83.18 28.4 77.28 28.4 75.73 28.4 54.23 49.1 54.15 57.35 77.86 35.08 210.14 35.08"/><path class="cls-2" d="M52.84,60.34,53,48.55,75.21,27.12H212.79l22.26,21.43.11,11.79-25.52-24H78.36ZM77.35,33.8h133.3l21.89,20.56,0-4.71-20.74-20H76.25l-20.74,20,0,4.71Z"/><path class="cls-4" d="M86.45,82.6c14.36-13.8,35-21.66,57.85-21.66,22.74,0,43.23,7.76,57.58,21.4l.27.26,10-.08v-.18c-16-17.57-40.44-27.69-67.81-27.69S92.5,64.77,76.49,82.34v.19Z"/><path class="cls-2" d="M86.86,83.63l-11.39-.08V81.94l.26-.29c16.23-17.81,41.22-28,68.57-28s52.34,10.21,68.56,28l.27.29v1.6l-11.4.09-.57-.56C186.84,69.46,166.64,62,144.3,62c-22.51,0-42.8,7.59-57.14,21.37Zm-8.2-2.11,7.38,0c14.71-14,35.38-21.66,58.26-21.66s43.55,7.69,58.26,21.66l7.37-.06c-15.86-16.44-39.64-25.83-65.63-25.83S94.52,65.07,78.66,81.52Z"/></svg>